# xmcd CD database file
#
# Track frame offsets:
#	150
#	12952
#	25397
#	38605
#	50045
#	61152
#	73217
#	84127
#	94400
#	103897
#	117175
#	127865
#	138815
#	153837
#	164505
#	176125
#	188990
#	201835
#	215062
#	227912
#	237420
#	253347
#	265237
#	279870
#	291577
#
# Disc length: 4050 seconds
#
# Revision: 0
# Processed by: cddbd v1.4PL0 Copyright (c) Steve Scherf et al.
# Submitted via: Feurio! 1.66 - http://www.feurio.com
#
DISCID=760fd019
DTITLE=Dean MARTIN - Dino - The golden years - 1/4
DYEAR=1900
DGENRE=Country
TTITLE0=Face in a crowd
TTITLE1=Everybody loves somebody
TTITLE2=The door is still open to my heart
TTITLE3=Send me the pillow you dream on
TTITLE4=(Remember me) I'm the one who loves you
TTITLE5=Houston
TTITLE6=I will
TTITLE7=Somewhere there's a someone
TTITLE8=Come running back
TTITLE9=A million and one
TTITLE10=Shades
TTITLE11=Nobody's baby again
TTITLE12=(Open up the door) let the good times in
TTITLE13=Lay some happiness on me
TTITLE14=In the chapel in the moonlight
TTITLE15=Little ole wine drinker me
TTITLE16=You've still got a place in my heart
TTITLE17=April again
TTITLE18=That old-time feelin'
TTITLE19=Five card stud
TTITLE20=Not enough indians
TTITLE21=Gentle on my mind
TTITLE22=I take a lot of pride in what I am
TTITLE23=She's a little bit country
TTITLE24=Get on with your livin'
EXTD=
EXTT0=
EXTT1=
EXTT2=
EXTT3=
EXTT4=
EXTT5=
EXTT6=
EXTT7=
EXTT8=
EXTT9=
EXTT10=
EXTT11=
EXTT12=
EXTT13=
EXTT14=
EXTT15=
EXTT16=
EXTT17=
EXTT18=
EXTT19=
EXTT20=
EXTT21=
EXTT22=
EXTT23=
EXTT24=
PLAYORDER=
